<?xml version="1.0" encoding="utf-8"?>
<!-- Generator: Adobe Illustrator 18.0.0, SVG Export Plug-In . SVG Version: 6.00 Build 0)  -->
<!DOCTYPE svg PUBLIC "-//W3C//DTD SVG 1.1//EN" "http://www.w3.org/Graphics/SVG/1.1/DTD/svg11.dtd">
<svg version="1.1" xmlns="http://www.w3.org/2000/svg" xmlns:xlink="http://www.w3.org/1999/xlink" x="0px" y="0px"
	 viewBox="0 0 36 36" enable-background="new 0 0 36 36" xml:space="preserve">
<g id="BACKGROUND">
</g>
<g id="DESIGNED_BY_FREEPIK">
</g>
<g id="OBJECTS">
	<rect x="-95.8" y="-163.8" fill="none" width="274" height="238.7"/>
	<g>
		<path fill="#F7F8F9" d="M0.7,13.1C-3,26.8,9.2,39,22.9,35.3c6-1.6,10.8-6.4,12.4-12.4C39,9.2,26.8-3,13.1,0.7
			C7,2.2,2.2,7,0.7,13.1z"/>
		<g>
			<g>
				<path d="M28.6,10.9c0-0.5-0.4-0.9-0.9-0.9H8.8c-0.5,0-0.9,0.4-0.9,0.9V23h20.7V10.9z M27.1,21.9H9.4V11.3h17.6V21.9z"/>
				<path d="M29.8,24.2c0,0.2-0.2,0.4-0.4,0.4l-22.6,0c-0.2,0-0.4-0.2-0.4-0.4l-0.1-0.9c0-0.2,0.1-0.4,0.3-0.4h22.9
					c0.2,0,0.3,0.2,0.3,0.4L29.8,24.2z"/>
				<path d="M19.7,23.6c0,0.1-0.1,0.2-0.2,0.2h-2.4c-0.1,0-0.2-0.1-0.2-0.2l0,0c0-0.1,0.1-0.2,0.2-0.2h2.4
					C19.6,23.4,19.7,23.5,19.7,23.6L19.7,23.6z"/>
			</g>
			<g>
				<path d="M14.7,14.6c0.4,0,0.7,0,1.1,0c0.1,0,0.3,0,0.4,0c0.3,0,0.7,0,1,0c0.1,0,0.3,0,0.4,0c0.3,0,0.7,0,1,0c0.1,0,0.3,0,0.4,0
					c0.3,0,0.7,0,1,0c0.1,0,0.3,0,0.4,0c0.3,0,0.7,0,1,0c0.1,0,0.3,0,0.4,0c0.3,0,0.7,0,1,0c0.1,0,0.2,0,0.3,0c0,0.6,0,0.6-0.9,0.6
					c0,0-0.1,0-0.1,0c-0.1,0-0.2,0-0.4,0c-0.4,0-0.7,0-1.1,0c-0.1,0-0.2,0-0.4,0c-0.4,0-0.9,0-1.3,0c0-0.1-0.1,0-0.2,0
					c-0.4,0-0.7,0-1.1,0c-0.1,0-0.2,0-0.4,0c-0.4,0-0.9,0-1.3,0c0-0.1-0.1,0-0.2,0c-0.4,0-0.9,0-1.3,0c0-0.1-0.1,0-0.2,0
					c-0.3,0-0.7,0.1-0.6-0.3c0-0.1,0-0.1,0-0.2c0-0.1,0.1-0.1,0.2-0.1C14.5,14.6,14.6,14.6,14.7,14.6z"/>
				<path d="M14.8,17.6c0.1,0,0.2,0,0.4,0c0.5,0,0.7,0.2,0.5,0.5c-0.1,0.2-0.4,0.1-0.5,0.1c-0.1,0-0.2,0-0.3,0c-0.4,0-0.8,0-1.2,0
					c-0.1,0-0.2,0-0.3,0c-0.4,0-0.8,0-1.1,0c-0.1,0-0.3,0-0.4,0c-0.4,0-0.7,0-1.1,0c-0.1,0-0.3,0-0.4,0c-0.1,0-0.2-0.1-0.2-0.2
					c0-0.1,0-0.2,0-0.4c0,0,0-0.1,0.1-0.1c0.4,0,0.8,0,1.2,0c0.1,0,0.2,0,0.3,0c0.4,0,0.8,0,1.2,0c0.1,0,0.2,0,0.3,0
					c0.4,0,0.8,0,1.2,0C14.5,17.6,14.6,17.6,14.8,17.6z"/>
				<path d="M10.3,14.6c0.4,0,0.7,0,1.1,0c0.1,0,0.2,0,0.4,0c0.4,0,0.7,0,1.1,0c0.1,0,0.2,0,0.4,0c0.4,0,0.5,0.1,0.4,0.3
					c0,0.1,0,0.2,0,0.3c0,0-0.1,0-0.2,0.1c-0.1,0-0.2,0-0.3,0c-0.4,0-0.8,0-1.2,0c-0.1,0-0.2,0-0.3,0c-0.4,0-0.7,0-1.1,0
					c-0.1,0-0.2,0-0.4,0C10.1,15,10.3,14.8,10.3,14.6C10.2,14.6,10.3,14.6,10.3,14.6z"/>
				<path d="M10.5,20.4c-0.3-0.2-0.2-0.3,0-0.4c0.3-0.2,0.6-0.4,0.9-0.6c0.2-0.1,0.3-0.2,0.5,0c0,0,0.1,0.1,0.2,0.1
					c0.1,0.1,0.1,0.1,0,0.2c-0.2,0.1-0.4,0.3-0.6,0.4c-0.2,0.1-0.2,0.2,0,0.3c0.1,0,0.1,0.1,0.2,0.1c0.1,0.1,0.2,0.2,0.3,0.2
					c0.3,0.2,0,0.3-0.1,0.4c-0.3,0.3-0.4,0-0.5-0.1c0,0-0.1-0.1-0.1-0.1c-0.2-0.2-0.4-0.3-0.6-0.4C10.6,20.4,10.5,20.4,10.5,20.4z"
					/>
				<path d="M10.4,13.1c-0.2-0.1-0.2-0.2,0-0.3c0.4-0.2,0.7-0.5,1.1-0.7c0.1-0.1,0.2-0.1,0.3,0c0.4,0.3,0.4,0.3,0,0.5
					c-0.6,0.4-0.6,0.4,0,0.8c0,0,0,0,0.1,0c0.1,0.1,0.3,0.2,0.3,0.2c-0.1,0.1-0.3,0.2-0.4,0.3c-0.2,0.1-0.2-0.1-0.3-0.1
					c-0.1-0.1-0.1-0.1-0.2-0.2c-0.1-0.1-0.3-0.3-0.5-0.4C10.6,13.2,10.5,13.1,10.4,13.1z"/>
				<path d="M10.2,16.7c0-0.1,0-0.2,0-0.3c0-0.3,0.1-0.4,0.5-0.3c0,0,0,0,0.1,0c0.1,0,0.2,0,0.3,0c0.4,0,0.8,0,1.2,0
					c0.1,0,0.2,0,0.3,0c0.2,0,0.3,0.1,0.3,0.2c0,0.1,0,0.2,0,0.3c0,0.1-0.1,0.2-0.2,0.2c-0.4,0-0.8,0-1.2,0c-0.1,0-0.2,0-0.3,0
					C10.8,16.7,10.5,16.7,10.2,16.7z"/>
				<path d="M18.5,16.7c-0.9,0-1.8,0-2.7,0c-0.1,0-0.2,0-0.3,0c-0.4,0-0.8,0-1.2,0c-0.1,0-0.2,0-0.3,0c-0.3,0-0.7,0.1-0.6-0.3
					c0-0.1,0-0.1,0-0.2c0-0.1,0.1-0.1,0.2-0.1c0.1,0,0.2,0,0.3,0c0.4,0,0.8,0,1.2,0c0.1,0,0.2,0,0.3,0c0.4,0,0.7,0,1.1,0
					c0.1,0,0.3,0,0.4,0c0.4,0,0.8,0,1.2,0c0.1,0,0.2,0,0.3,0c0.3,0,0.6,0.1,0.5,0.3c0,0.1,0,0.1,0,0.2c0,0.1-0.1,0.1-0.1,0.1
					C18.7,16.7,18.6,16.7,18.5,16.7z"/>
				<path d="M21.1,18.3c-0.1,0-0.2,0-0.3,0c-0.4,0-0.7,0-1.1,0c-0.1,0-0.2,0-0.4,0c-0.4,0-0.8,0-1.2,0c-0.1,0-0.2,0-0.3,0
					c-0.4,0-0.9,0-1.3,0c-0.2,0-0.3,0-0.3-0.2c0-0.4,0-0.4,0.6-0.4c0.2,0,0.4,0,0.6,0c0.1,0,0.2,0,0.4,0c0.4,0,0.7,0,1.1,0
					c0.1,0,0.2,0,0.4,0c0.4,0,0.7,0,1.1,0c0.1,0,0.2,0,0.4,0c0.3,0,0.6,0,0.9,0c0,0.1,0.1,0.1,0.1,0.2c0,0,0,0,0,0
					C21.6,18.2,21.6,18.2,21.1,18.3z"/>
				<path d="M15.6,21.1c-0.1-0.1-0.1-0.1-0.2-0.2c-0.2-0.1-0.2-0.2,0-0.4c0.1-0.1,0.2-0.2,0.4-0.3c0.3-0.2,0.3-0.3,0-0.4
					c0,0-0.1-0.1-0.1-0.1c-0.1-0.1-0.2-0.1-0.3-0.2c-0.2-0.1-0.1-0.2,0-0.3c0.2-0.2,0.4-0.3,0.7,0c0,0,0.1,0.1,0.2,0.1
					c0.1,0.1,0.2,0.1,0.2,0.2c0.2,0.1,0.3,0.2,0.5,0.4c0,0,0.1,0.1,0.1,0.1c0.1,0.1,0.1,0.1,0,0.2c-0.4,0.3-0.9,0.6-1.3,0.9
					C15.7,21.2,15.6,21.1,15.6,21.1z"/>
				<path d="M12.9,21c-0.1,0-0.2-0.1-0.2-0.1c0-0.2,0.2-0.2,0.3-0.4c0.4-0.4,0.7-0.9,1.1-1.3c0,0,0,0,0.1,0c0.2,0.1,0.4,0.2,0.6,0.2
					c-0.1,0.1-0.2,0.3-0.3,0.4c-0.3,0.3-0.6,0.7-0.9,1C13.3,21.1,13.1,21.1,12.9,21z"/>
				<path d="M21.4,16.1c0.4,0,0.7,0,1.1,0c0.1,0,0.3,0,0.4,0c0.3,0,0.6,0,0.9,0c0,0.1,0,0.2,0,0.3c0.1,0.3-0.2,0.4-0.6,0.4
					c-0.1-0.1-0.2,0-0.3,0c-0.4,0-0.7,0-1.1,0c-0.1,0-0.3,0-0.4,0c-0.4,0-0.7,0-1.1,0c-0.1,0-0.3,0-0.4,0c-0.5,0-0.4-0.2-0.4-0.4
					c0-0.2,0.1-0.2,0.3-0.2c0.4,0,0.7,0,1.1,0C21.2,16.1,21.3,16.1,21.4,16.1z"/>
				<path d="M24.8,17.6c0.1,0,0.2,0,0.3,0c0,0.6,0,0.6-0.8,0.6c-0.1,0-0.1,0-0.2,0c-0.1,0-0.3,0-0.4,0c-0.4,0-0.7,0-1.1,0
					c-0.1,0-0.2,0-0.4,0c0-0.6,0-0.6,0.8-0.6c0.1,0,0.2,0,0.3,0c0.1,0,0.2,0,0.3,0C24.1,17.6,24.4,17.6,24.8,17.6z"/>
				<path d="M26.3,14.6c0.1,0,0.3,0,0.4,0c0,0.2,0,0.4,0,0.6c0,0-0.1,0-0.1,0.1c-0.4,0-0.7,0-1.1,0c-0.1,0-0.2,0-0.3,0
					c-0.4,0-0.7,0-1.1,0c0-0.1,0-0.1,0-0.2c0.1-0.5,0.1-0.5,0.7-0.5c0.2,0,0.3,0,0.5,0C25.6,14.6,25.9,14.6,26.3,14.6z"/>
				<path d="M15.9,12.4c-0.3-0.2,0.1-0.3,0.2-0.4c0.2-0.2,0.2,0,0.3,0.1c0.4,0.2,0.7,0.5,1.1,0.7c0.1,0.1,0.2,0.1,0,0.2
					c-0.4,0.3-0.8,0.5-1.2,0.8c-0.2,0.2-0.3-0.1-0.4-0.1c-0.1-0.1-0.1-0.1-0.2-0.2c0.1-0.2,0.3-0.2,0.4-0.4c0.5-0.3,0.5-0.3-0.1-0.7
					C16,12.5,16,12.4,15.9,12.4z"/>
				<path d="M13.1,13.2C13.1,13.2,13.1,13.2,13.1,13.2c-0.2,0-0.5,0-0.5-0.1c-0.1-0.1,0-0.3,0-0.5c0-0.1,0.1-0.1,0.2-0.1
					c0.8,0,1.6,0,2.4,0c0.1,0,0.2,0,0.2,0.1c0,0.1,0,0.2,0,0.3c0,0.2-0.1,0.3-0.4,0.3c-0.1,0-0.3,0-0.4,0c-0.4,0-0.7,0-1.1,0
					C13.4,13.2,13.2,13.2,13.1,13.2z"/>
			</g>
		</g>
	</g>
</g>
</svg>
