<?xml version="1.0" encoding="utf-8"?>
<!-- Generator: Adobe Illustrator 18.0.0, SVG Export Plug-In . SVG Version: 6.00 Build 0)  -->
<!DOCTYPE svg PUBLIC "-//W3C//DTD SVG 1.1//EN" "http://www.w3.org/Graphics/SVG/1.1/DTD/svg11.dtd">
<svg version="1.1" id="Capa_1" xmlns="http://www.w3.org/2000/svg" xmlns:xlink="http://www.w3.org/1999/xlink" x="0px" y="0px"
	 viewBox="0 0 21.4 14.5" enable-background="new 0 0 21.4 14.5" xml:space="preserve">
<symbol  id="botonCurva" viewBox="-155 -22.5 310 45">
	<g>
		<polygon opacity="0.41" fill="#00E2C0" points="155,-22.5 -155,-22.5 -155,22.5 155,22.5 		"/>
	</g>
</symbol>
<g id="ui_x5F_dialog_x5F_light">
</g>
<g>
	<path fill="#C8C8C8" d="M13.5,1.1c2.1,2,4.1,4.1,6.2,6.1c-2.1,2.1-4.1,4.1-6.2,6.1c-0.4-0.5-0.4-1.6,0.1-2.1c1-1,2-2,3-3
		c0.1-0.1,0.2-0.2,0.3-0.4c-5.1,0-10.2,0-15.3,0c0-0.4,0-0.8,0-1.2c5.1,0,10.2,0,15.3,0c-0.1-0.2-0.2-0.3-0.3-0.3
		c-1-1-1.9-2-2.9-2.9C13,2.8,13.1,2,13.5,1.1z"/>
</g>
<g id="grupo">
</g>
<g id="ic_x5F_plus_2">
</g>
<g id="botonCurva2">
	<g id="bbt">
	</g>
</g>
<g id="ui_x5F_dialog_x5F_light_2">
</g>
<g id="ic_x5F_radioButtonOn_x5F_color_x0D_">
</g>
</svg>
