<?xml version="1.0" encoding="utf-8"?>
<!-- Generator: Adobe Illustrator 18.0.0, SVG Export Plug-In . SVG Version: 6.00 Build 0)  -->
<!DOCTYPE svg PUBLIC "-//W3C//DTD SVG 1.1//EN" "http://www.w3.org/Graphics/SVG/1.1/DTD/svg11.dtd">
<svg version="1.1" xmlns="http://www.w3.org/2000/svg" xmlns:xlink="http://www.w3.org/1999/xlink" x="0px" y="0px"
	 viewBox="0 0 36 36" enable-background="new 0 0 36 36" xml:space="preserve">
<g id="BACKGROUND">
</g>
<g id="DESIGNED_BY_FREEPIK">
</g>
<g id="OBJECTS">
	<rect x="-95.8" y="-83.7" fill="none" width="274" height="238.7"/>
	<g>
		<path fill="#FCFCFC" d="M1.8,9.8c-7.2,16.1,8.3,31.6,24.4,24.4c3.6-1.6,6.4-4.5,8-8C41.4,10.1,25.9-5.4,9.8,1.8
			C6.3,3.4,3.4,6.3,1.8,9.8z"/>
		<g>
			<ellipse fill="#E2E1E3" cx="18" cy="24.3" rx="14.4" ry="1.5"/>
			<g>
				<path d="M28.5,10.6c0-0.5-0.4-0.9-0.9-0.9H8.3c-0.5,0-0.9,0.4-0.9,0.9v12.4h21.1V10.6z M27,21.8h-18V10.9h18V21.8z"/>
				<path d="M29.8,24.2c0,0.2-0.2,0.4-0.4,0.4l-23.2,0c-0.2,0-0.4-0.2-0.4-0.4l-0.1-0.9c0-0.2,0.1-0.4,0.3-0.4h23.4
					c0.2,0,0.4,0.2,0.3,0.4L29.8,24.2z"/>
				<path d="M19.4,23.6c0,0.1-0.1,0.2-0.2,0.2h-2.4c-0.1,0-0.2-0.1-0.2-0.2l0,0c0-0.1,0.1-0.2,0.2-0.2h2.4
					C19.3,23.3,19.4,23.4,19.4,23.6L19.4,23.6z"/>
			</g>
		</g>
		<g>
			<g id="Settings_9_">
				<g>
					<g>
						<g>
							<g>
								<path fill="#11110A" d="M17.8,16.4c0-0.1-0.2-0.1-0.3-0.1c-0.3,0.1-0.6,0-0.8-0.2c-0.2-0.2-0.3-0.6-0.1-0.9
									c0-0.1,0-0.2-0.1-0.3c-0.2-0.1-0.5-0.2-0.7-0.3c-0.1,0-0.2,0-0.2,0.1c-0.1,0.3-0.4,0.5-0.7,0.5c-0.3,0-0.6-0.2-0.7-0.5
									c0-0.1-0.1-0.2-0.2-0.1c-0.3,0.1-0.5,0.2-0.7,0.3c-0.1,0-0.1,0.2-0.1,0.2c0.1,0.3,0.1,0.6-0.2,0.9c-0.2,0.2-0.6,0.3-0.9,0.1
									c-0.1,0-0.2,0-0.3,0.1c-0.1,0.2-0.2,0.5-0.3,0.7c0,0.1,0,0.2,0.1,0.2c0.3,0.1,0.5,0.4,0.5,0.7c0,0.3-0.2,0.6-0.5,0.7
									c-0.1,0-0.2,0.1-0.1,0.2c0.1,0.3,0.2,0.5,0.3,0.7c0,0.1,0.2,0.1,0.3,0.1c0.3-0.1,0.6,0,0.8,0.2c0.2,0.2,0.3,0.6,0.1,0.9
									c0,0.1,0,0.2,0.1,0.3c0.2,0.1,0.5,0.2,0.7,0.3c0.1,0,0.2,0,0.2-0.1c0.1-0.3,0.4-0.5,0.7-0.5c0.3,0,0.6,0.2,0.7,0.5
									c0,0.1,0.1,0.2,0.2,0.1c0.1,0,0.3-0.1,0.4-0.1c0.1,0,0.2-0.1,0.3-0.2c0.1,0,0.1-0.2,0.1-0.2c-0.1-0.3-0.1-0.6,0.2-0.9
									c0.2-0.2,0.6-0.3,0.9-0.1c0.1,0,0.2,0,0.3-0.1c0.1-0.2,0.2-0.5,0.3-0.7c0-0.1,0-0.2-0.1-0.2c-0.3-0.1-0.5-0.4-0.5-0.7
									c0-0.3,0.2-0.6,0.5-0.7l0,0c0.1,0,0.2-0.1,0.1-0.2C18,16.9,18,16.7,17.8,16.4z M15.2,19.1c-0.6,0.2-1.3-0.1-1.5-0.7
									c-0.2-0.6,0.1-1.3,0.7-1.5c0.6-0.2,1.3,0.1,1.5,0.7C16.1,18.2,15.8,18.9,15.2,19.1z"/>
							</g>
						</g>
					</g>
				</g>
			</g>
			<g id="Settings_7_">
				<g>
					<g>
						<g>
							<g>
								<path fill="#11110A" d="M22.7,12.7c0-0.1-0.1-0.1-0.2-0.1c-0.2,0.1-0.5,0-0.7-0.1c-0.2-0.2-0.2-0.5-0.1-0.7
									c0-0.1,0-0.2-0.1-0.2c-0.2-0.1-0.4-0.2-0.6-0.3c-0.1,0-0.2,0-0.2,0.1c-0.1,0.2-0.3,0.4-0.6,0.4c-0.3,0-0.5-0.2-0.6-0.4
									c0-0.1-0.1-0.1-0.2-0.1c-0.2,0.1-0.4,0.1-0.6,0.2c-0.1,0-0.1,0.1-0.1,0.2c0.1,0.2,0,0.5-0.1,0.7c-0.2,0.2-0.5,0.2-0.7,0.1
									c-0.1,0-0.2,0-0.2,0.1c-0.1,0.2-0.2,0.4-0.3,0.6c0,0.1,0,0.2,0.1,0.2c0.2,0.1,0.4,0.3,0.4,0.6c0,0.2-0.2,0.5-0.4,0.6
									c-0.1,0-0.1,0.1-0.1,0.2c0.1,0.2,0.1,0.4,0.2,0.6c0,0.1,0.1,0.1,0.2,0.1c0.2-0.1,0.5,0,0.7,0.2c0.2,0.2,0.2,0.5,0.1,0.7
									c0,0.1,0,0.2,0.1,0.2c0.2,0.1,0.4,0.2,0.6,0.3c0.1,0,0.2,0,0.2-0.1c0.1-0.2,0.3-0.4,0.6-0.4c0.3,0,0.5,0.2,0.6,0.4
									c0,0.1,0.1,0.1,0.2,0.1c0.1,0,0.2-0.1,0.3-0.1c0.1,0,0.2-0.1,0.3-0.1c0.1,0,0.1-0.1,0.1-0.2c-0.1-0.2,0-0.5,0.1-0.7
									c0.2-0.2,0.5-0.2,0.7-0.1c0.1,0,0.2,0,0.2-0.1c0.1-0.2,0.2-0.4,0.3-0.6c0-0.1,0-0.2-0.1-0.2c-0.2-0.1-0.4-0.3-0.4-0.6
									c0-0.2,0.2-0.5,0.4-0.6l0,0c0.1,0,0.1-0.1,0.1-0.2C22.9,13.1,22.8,12.9,22.7,12.7z M20.6,14.9c-0.5,0.2-1-0.1-1.2-0.5
									c-0.2-0.5,0.1-1,0.5-1.2c0.5-0.2,1,0.1,1.2,0.5C21.3,14.2,21.1,14.7,20.6,14.9z"/>
							</g>
						</g>
					</g>
				</g>
			</g>
			<g id="Settings_1_">
				<g>
					<g>
						<g>
							<g>
								<path fill="#11110A" d="M22.7,18.4c0-0.1-0.1-0.1-0.2,0c-0.2,0.1-0.4,0-0.5-0.1c-0.1-0.1-0.2-0.3-0.1-0.5c0-0.1,0-0.1,0-0.1
									c-0.1-0.1-0.3-0.1-0.4-0.2c-0.1,0-0.1,0-0.1,0.1c-0.1,0.2-0.2,0.3-0.4,0.3c-0.2,0-0.4-0.1-0.4-0.3c0-0.1-0.1-0.1-0.1-0.1
									c-0.1,0-0.3,0.1-0.4,0.2c-0.1,0-0.1,0.1-0.1,0.1c0.1,0.2,0,0.4-0.1,0.5c-0.1,0.1-0.3,0.2-0.5,0.1c-0.1,0-0.1,0-0.1,0
									c-0.1,0.1-0.1,0.3-0.2,0.4c0,0.1,0,0.1,0.1,0.1c0.2,0.1,0.3,0.2,0.3,0.4c0,0.2-0.1,0.3-0.3,0.4c-0.1,0-0.1,0.1-0.1,0.1
									c0,0.1,0.1,0.3,0.2,0.4c0,0.1,0.1,0.1,0.2,0c0.2-0.1,0.4,0,0.5,0.1c0.1,0.1,0.2,0.3,0.1,0.5c0,0.1,0,0.1,0,0.1
									c0.1,0.1,0.3,0.1,0.4,0.2c0.1,0,0.1,0,0.1-0.1c0.1-0.2,0.2-0.3,0.4-0.3c0.2,0,0.4,0.1,0.4,0.3c0,0.1,0.1,0.1,0.1,0.1
									c0.1,0,0.1,0,0.2-0.1c0.1,0,0.1-0.1,0.2-0.1c0.1,0,0.1-0.1,0.1-0.1c-0.1-0.2,0-0.4,0.1-0.5c0.1-0.1,0.3-0.2,0.5-0.1
									c0.1,0,0.1,0,0.1,0c0.1-0.1,0.1-0.3,0.2-0.4c0-0.1,0-0.1-0.1-0.1c-0.2-0.1-0.3-0.2-0.3-0.4c0-0.2,0.1-0.3,0.3-0.4l0,0
									c0.1,0,0.1-0.1,0.1-0.1C22.8,18.7,22.7,18.6,22.7,18.4z M21.1,20c-0.3,0.1-0.7,0-0.9-0.4c-0.1-0.3,0-0.7,0.4-0.9
									c0.3-0.1,0.7,0,0.9,0.4C21.6,19.5,21.5,19.9,21.1,20z"/>
							</g>
						</g>
					</g>
				</g>
			</g>
		</g>
	</g>
</g>
</svg>
